<svg width="62" height="62" viewBox="0 0 62 62" xmlns="http://www.w3.org/2000/svg"><title>Group</title><g fill="none" fill-rule="evenodd"><path d="M43.04 30.977c-.26 6.75-5.276 11.768-12.027 12.028-6.746.259-11.784-5.67-12.028-12.028-.26-6.745 5.672-11.783 12.028-12.028 6.745-.259 11.782 5.67 12.027 12.028.105 2.716 4.333 2.727 4.227 0-.35-9.097-7.157-15.905-16.254-16.255-9.09-.35-15.925 7.683-16.255 16.255-.35 9.09 7.683 15.925 16.255 16.255 9.09.35 15.923-7.683 16.254-16.255.106-2.728-4.122-2.717-4.227 0z" fill="#F8E71C"/><path d="M31.013 43.005c-6.746.259-11.784-5.67-12.028-12.028-.26-6.745 5.672-11.783 12.028-12.028 6.745-.259 11.782 5.67 12.027 12.028.105 2.716.106 3.75 0 1.023-.351-9.097-2.93-16.928-12.027-17.278-9.09-.35-15.925 7.683-16.255 16.255-.35 9.09 7.683 15.925 16.255 16.255 9.09.35 15.923-7.683 16.254-16.255.106-2.728-4.122-2.717-4.227 0-.26 6.75-5.276 11.768-12.027 12.028z" fill="#F8E71C"/><path d="M33.127 8.754V2.416c0-2.727-4.227-2.727-4.227 0v6.338c0 2.726 4.227 2.726 4.227 0zm0 50.803v-6.338c0-2.726-4.227-2.726-4.227 0v6.338c0 2.726 4.227 2.726 4.227 0z" fill="#F8E81C"/><path d="M8.781 28.873h-6.34c-2.726 0-2.726 4.228 0 4.228h6.34c2.727 0 2.727-4.228 0-4.228z" fill="#E1E1E1"/><path d="M59.584 28.873h-6.337c-2.727 0-2.727 4.228 0 4.228h6.337c2.727 0 2.727-4.228 0-4.228zM48.41 16.582l4.48-4.483c1.93-1.93-1.06-4.92-2.989-2.99-1.493 1.495-2.988 2.99-4.482 4.483-1.928 1.93 1.062 4.92 2.99 2.99zM12.127 52.863l4.48-4.48c1.93-1.93-1.06-4.919-2.99-2.99a6307.519 6307.519 0 0 1-4.48 4.48c-1.929 1.93 1.06 4.92 2.99 2.99z" fill="#F8E81C"/><path d="M16.608 13.592a6313.622 6313.622 0 0 1-4.481-4.483c-1.93-1.93-4.917 1.06-2.99 2.99 1.494 1.493 2.988 2.989 4.481 4.483 1.93 1.93 4.918-1.06 2.99-2.99z" fill="#E1E1E1"/><path d="M52.892 49.874l-4.48-4.481c-1.93-1.93-4.919 1.06-2.99 2.99l4.48 4.48c1.93 1.93 4.918-1.06 2.99-2.99z" fill="#F8E81C"/></g></svg>